<?xml version="1.0" encoding="UTF-8"?><svg width="28" height="28" viewBox="0 0 48 48" fill="none" xmlns="http://www.w3.org/2000/svg"><g clip-path="url(#icon-8c67bb078df3014)"><path d="M24 10L12 18L24 26L36 18L24 10Z" fill="none" stroke="#adadad" stroke-width="4" stroke-linejoin="round"/><path d="M24 10L36 18L41 11L30 4L24 10Z" stroke="#adadad" stroke-width="4" stroke-linejoin="round"/><path d="M24 10L12 18L7 11L18 4L24 10Z" stroke="#adadad" stroke-width="4" stroke-linejoin="round"/><path d="M43 22L36 18L24 26L31 31L43 22Z" stroke="#adadad" stroke-width="4" stroke-linejoin="round"/><path d="M5 22L12 18L24 26L17 31L5 22Z" stroke="#adadad" stroke-width="4" stroke-linejoin="round"/><path d="M36 28V37L24 44L12 37V28" stroke="#adadad" stroke-width="4" stroke-linecap="round" stroke-linejoin="round"/></g><defs><clipPath id="icon-8c67bb078df3014"><rect width="48" height="48" fill="#adadad"/></clipPath></defs></svg>